<?xml version="1.0" encoding="UTF-8" standalone="no"?>
<svg
   xmlns:dc="http://purl.org/dc/elements/1.1/"
   xmlns:cc="http://creativecommons.org/ns#"
   xmlns:rdf="http://www.w3.org/1999/02/22-rdf-syntax-ns#"
   xmlns:svg="http://www.w3.org/2000/svg"
   xmlns="http://www.w3.org/2000/svg"
   xmlns:xlink="http://www.w3.org/1999/xlink"
   xmlns:sodipodi="http://sodipodi.sourceforge.net/DTD/sodipodi-0.dtd"
   xmlns:inkscape="http://www.inkscape.org/namespaces/inkscape"
   preserveAspectRatio="none"
   inkscape:version="1.0 (4035a4fb49, 2020-05-01)"
   sodipodi:docname="my-name-graffitti.svg"
   id="svg8"
   version="1.1"
   viewBox="0 0 210 297"
   height="100%"
   width="100%">
  <defs
     id="defs2">
    <linearGradient
       id="linearGradient876"
       inkscape:collect="always">
      <stop
         id="stop872"
         offset="0"
         style="stop-color:#ff0066;stop-opacity:1;" />
      <stop
         id="stop874"
         offset="1"
         style="stop-color:#ffdd00;stop-opacity:1" />
    </linearGradient>
    <linearGradient
       gradientTransform="matrix(1.0840842,-0.23576332,0.18471284,1.3837006,-236.38315,-618.37988)"
       gradientUnits="userSpaceOnUse"
       y2="482.20139"
       x2="229.42506"
       y1="641.55298"
       x1="206.13023"
       id="linearGradient878"
       xlink:href="#linearGradient876"
       inkscape:collect="always" />
  </defs>
  <sodipodi:namedview
     inkscape:window-maximized="1"
     inkscape:window-y="210"
     inkscape:window-x="2992"
     inkscape:window-height="1017"
     inkscape:window-width="1920"
     showgrid="false"
     inkscape:document-rotation="0"
     inkscape:current-layer="layer1"
     inkscape:document-units="mm"
     inkscape:cy="156.39559"
     inkscape:cx="-44.304428"
     inkscape:zoom="1.979899"
     inkscape:pageshadow="2"
     inkscape:pageopacity="0.0"
     borderopacity="1.0"
     bordercolor="#666666"
     pagecolor="#ffffff"
     id="base" />
  <metadata
     id="metadata5">
    <rdf:RDF>
      <cc:Work
         rdf:about="">
        <dc:format>image/svg+xml</dc:format>
        <dc:type
           rdf:resource="http://purl.org/dc/dcmitype/StillImage" />
      </cc:Work>
    </rdf:RDF>
  </metadata>
  <g
     id="layer1"
     inkscape:groupmode="layer"
     inkscape:label="Layer 1">
    <path
       d="m 172.90505,11.161262 c -2.71806,-0.134848 -5.50093,0.798378 -7.77958,2.722308 -4.21592,2.801937 -7.73334,6.979261 -10.2131,12.161242 -2.97434,-5.648509 -7.0402,-12.052179 -12.75834,-12.465551 -2.11057,0.297081 -3.90174,2.067468 -6.05483,0.945816 -5.20428,-0.815656 -9.91921,5.216553 -9.27021,11.87887 0.10088,4.165942 1.27328,8.410176 0.89352,12.490229 -1.97799,3.093403 -2.94204,0.677469 -4.22486,-1.916309 -2.82648,-3.861265 -4.45479,-10.375668 -9.1048,-11.02352 -4.25584,-0.757895 -7.86921,3.354411 -9.4678,8.049006 -1.91717,-4.764722 -6.217685,-8.088617 -10.415,-6.324617 -3.488992,0.731846 -6.699237,4.114498 -7.498205,8.58086 -0.97204,1.722943 -2.026852,-1.676666 -3.241142,-1.754554 -3.269328,-2.272273 -7.708398,-2.61629 -10.683481,0.589431 -2.404457,-5.695405 -8.191636,-6.843444 -12.803437,-6.574099 -1.149558,0.140048 -2.281894,0.400629 -3.417254,0.663446 v 0.0027 c -2.758651,-0.109293 -1.278389,4.940918 -3.245425,6.445245 -1.069785,1.773066 -3.054956,-0.726736 -4.611472,0.150771 -3.379325,0.402662 -6.326476,2.803972 -9.237974,4.827758 -2.337308,-1.567491 -5.035981,-2.263472 -7.502504,-0.660695 -7.732992,3.039503 -15.11588,7.618689 -23.0551998,9.713093 -5.5177735,3.118921 -5.3505738,11.827975 -6.2288118,18.272026 -0.082138,2.306396 4.825068,0.88066 3.4344324,4.386383 1.8225562,4.075855 6.1635992,4.907892 9.5472672,4.704392 2.224941,-1.515077 1.906938,1.526194 2.190828,3.572157 0.963255,6.956859 1.353673,14.720626 4.671613,20.5694 1.697949,2.45568 4.480474,2.84312 6.62187,3.70101 3.592447,4.59676 9.551479,2.92818 12.829213,-1.35156 1.498572,-1.22685 2.53155,-4.193916 3.011309,-5.573445 0.893237,1.997849 1.421064,4.872915 3.40652,5.828415 0.471577,4.31309 0.884924,8.63857 1.340269,12.95352 -2.802044,-4.45199 -8.632377,-6.04129 -11.744539,-1.21996 -2.120116,3.57554 -4.433352,7.67709 -4.654426,12.2901 0.317376,4.63284 2.430641,8.67405 2.871689,13.30444 2.043918,9.90065 3.97451,19.84639 6.310443,29.64099 -0.375122,1.26087 -0.86989,2.52243 -0.86989,3.78325 0,1.99388 -1.963155,3.98801 -1.963155,5.98192 0,1.99393 1.963155,3.98802 1.963155,5.98194 0,1.99392 1.080375,3.988 1.080375,5.98193 0,1.99387 -1.080375,3.988 -1.080375,5.98192 0,1.99394 1.080375,3.98801 1.080375,5.98193 0,1.99394 -1.080375,3.98802 -1.080375,5.98193 v 5.98194 5.98193 5.98193 5.98192 5.97919 5.98192 5.98194 5.98193 c 0,1.08005 0.680917,1.94919 1.52713,1.94919 0.846204,0 1.527132,-0.86914 1.527132,-1.94919 v -5.98193 -5.98194 -5.98192 -5.97919 -5.98192 -5.98193 -5.98193 -5.98194 c 0,-1.99391 1.080386,-3.98799 1.080386,-5.98193 0,-1.99392 -1.080386,-3.98799 -1.080386,-5.98193 0,-1.99392 1.080386,-3.98805 1.080386,-5.98192 0,-1.99393 -1.080386,-3.98801 -1.080386,-5.98193 0,-1.99392 -1.963144,-3.98801 -1.963144,-5.98194 0,-1.22705 0.721134,-2.4547 1.293016,-3.6818 0.0933,0.35842 0.180175,0.71953 0.274926,1.0774 1.609851,2.39728 3.901918,3.17577 6.177268,2.83469 -0.432911,0.55366 -0.837669,1.10776 -0.837669,1.66134 0,1.24178 -1.080375,2.48399 -1.080375,3.72568 0,1.24179 1.080386,2.48392 1.080375,3.7257 0,1.2417 -1.080375,2.48392 -1.080375,3.72568 0,1.24177 1.080386,2.48391 1.080375,3.72567 v 3.7257 3.72293 3.72569 3.72569 3.72567 3.7257 3.72568 3.72567 c 0,0.67254 0.680917,1.21173 1.52713,1.21173 0.846204,0 1.529276,-0.53919 1.529276,-1.21173 v -3.72567 -3.72568 -3.7257 -3.72567 -3.72569 -3.72569 -3.72293 -3.7257 c 0,-1.24176 -1.080375,-2.4839 -1.080375,-3.72567 0,-1.24176 1.080375,-2.48398 1.080375,-3.72568 0,-1.24178 -1.080375,-2.48391 -1.080375,-3.7257 0,-1.24169 1.080375,-2.4839 1.080375,-3.72568 0,-1.18487 1.769332,-2.37079 1.933089,-3.5557 0.720485,-0.57373 1.381255,-1.25405 1.941666,-2.01773 0.168861,-0.14866 0.337039,-0.29942 0.5069,-0.44687 0.569021,0.95789 1.580829,1.91515 1.580829,2.87307 0,1.32691 1.080375,2.65379 1.080375,3.98064 0,1.32693 -1.080375,2.65373 -1.080375,3.98064 0,1.32692 1.080375,2.65374 1.080375,3.98065 0,1.32691 -1.080375,2.65373 -1.080375,3.98065 v 3.98064 3.98064 3.98065 3.98064 3.98064 3.98063 3.98064 3.98066 c 0,0.71868 0.680918,1.29672 1.527132,1.2967 0.846204,0 1.529287,-0.57802 1.529287,-1.2967 v -3.98066 -3.98064 -3.98063 -3.98064 -3.98064 -3.98065 -3.98064 -3.98064 c 0,-1.32692 1.078231,-2.65374 1.07822,-3.98065 0,-1.32691 -1.07822,-2.65373 -1.07822,-3.98065 0,-1.32691 1.078231,-2.65371 1.07822,-3.98064 0,-1.32685 -1.07822,-2.65373 -1.07822,-3.98064 0,-1.3269 -1.965299,-2.65372 -1.965299,-3.98063 0,-0.65859 0.48529,-1.31805 0.972977,-1.97662 4.063982,4.33813 11.217086,4.20606 13.956843,-2.22059 0.428326,-2.48992 2.682925,0.33941 4.029397,-0.11795 3.744822,1.72443 8.612285,3.52085 11.813267,-0.647 1.870558,0.0424 3.625351,-1.96669 5.34604,-0.59491 4.739814,1.99108 9.417064,-2.85612 10.195924,-8.75631 3.93398,3.40861 9.76625,4.16258 13.29745,-0.45233 4.01498,5.48786 11.12811,8.16807 16.16699,3.27607 1.94055,-1.58308 3.44792,-3.80377 5.82716,-4.2027 1.41728,-2.08841 2.83741,0.13501 4.5814,-0.0411 4.29948,0.93916 7.49528,-3.19348 10.59543,-6.20672 1.63532,-2.69081 3.21886,0.62624 5.27731,1.05272 4.40256,2.27944 10.04332,-0.75534 11.00567,-6.96338 2.13136,-10.15026 0.21152,-20.79116 -0.97514,-30.94593 -1.13203,-7.07405 -1.3687,-14.49126 -3.0607,-21.35346 -1.42359,-3.455541 -4.82402,-4.083665 -6.30184,-7.470556 -1.14227,-1.941771 -4.75538,-1.978744 -1.3231,-2.925162 2.52392,-1.420978 4.8824,-4.777353 5.10119,-8.142221 3.28766,-0.276447 6.5261,-1.364552 9.54298,-3.100632 0.005,0.0813 0.0257,0.162695 0.0257,0.243995 0,1.326906 -0.69161,2.653727 -0.69161,3.980646 0,1.326905 0.69161,2.653726 0.69161,3.98063 v 3.980647 3.980645 3.980646 3.980631 3.980641 3.98066 3.98064 3.98063 c 0,0.71869 0.43994,1.29673 0.98373,1.29673 0.5438,0 0.98158,-0.57804 0.98158,-1.29673 v -3.98063 -3.98064 -3.98066 -3.980641 -3.980631 -3.980646 -3.980645 -3.980647 c 0,-1.326904 -0.69592,-2.653725 -0.69592,-3.98063 1e-5,-1.326919 0.69592,-2.65374 0.69592,-3.980646 0,-0.455033 -0.0903,-0.910248 -0.19761,-1.365266 1.41669,-0.968177 2.76872,-2.08542 4.04228,-3.333651 0.0402,1.203468 0.68088,2.407162 0.68088,3.610546 0,1.241761 -0.69376,2.483914 -0.69376,3.725688 0,1.241705 0.69376,2.483915 0.69376,3.725675 0,1.241773 -0.69376,2.483927 -0.69376,3.725688 v 3.725687 3.722935 3.725688 3.725667 3.725689 3.7257 3.72567 3.72569 c 0,0.67252 0.43778,1.21174 0.98157,1.21174 0.5438,0 0.98158,-0.53922 0.98158,-1.21174 v -3.72569 -3.72567 -3.7257 -3.725689 -3.725667 -3.725688 -3.722935 -3.725687 c -1e-5,-1.241761 0.69376,-2.483915 0.69376,-3.725688 0,-1.24176 -0.69376,-2.48397 -0.69376,-3.725675 -1e-5,-1.241774 0.69376,-2.483927 0.69376,-3.725688 0,-1.241718 -0.69376,-2.483912 -0.69376,-3.725688 0,-0.486797 -0.2086,-0.971601 -0.44461,-1.458468 1.39049,-1.561328 2.65261,-3.297662 3.77165,-5.167706 0.32945,1.57855 1.1126,3.156033 1.1126,4.734556 0,1.993916 -1.26295,3.988 -1.26295,5.981916 0,1.993931 -0.69376,3.988015 -0.69376,5.981931 0,1.993875 0.69376,3.988015 0.69376,5.981931 0,1.99393 -0.69376,3.988015 -0.69376,5.981932 0,1.993929 0.69376,3.988 0.69376,5.981924 v 5.981929 5.98194 5.98193 5.98191 5.9792 5.98193 5.98193 5.98193 c 0,1.08007 0.43778,1.94919 0.98158,1.94919 0.54379,0 0.98158,-0.86912 0.98158,-1.94919 v -5.98193 -5.98193 -5.98193 -5.9792 -5.98191 -5.98193 -5.98194 -5.981929 c 0,-1.993924 -0.69376,-3.987995 -0.69376,-5.981924 0,-1.993917 0.69376,-3.988002 0.69376,-5.981932 0,-1.993916 -0.69376,-3.988056 -0.69376,-5.981931 0,-1.993916 0.69376,-3.988 0.69376,-5.981931 0,-1.993916 1.26293,-3.988 1.26293,-5.981916 0,-1.99393 -1.26293,-3.98807 -1.26293,-5.981931 0,-0.59534 -0.0801,-1.189362 -0.18258,-1.784717 3.23824,-7.26632 1.76565,-17.110429 -3.50531,-22.167682 -1.49364,-1.19349 1.86164,-2.897539 1.38537,-5.041588 -0.71333,-5.245749 -2.4768,-10.491428 -4.87566,-14.905475 -2.07012,-3.864986 -5.45766,-5.803065 -8.9523,-5.976458 z m -6.09135,40.856422 c 0.2893,-0.05417 0.60565,0.117692 0.8978,0.07949 3.37163,3.21027 -2.06031,2.211551 -1.17703,0.06579 0.0884,-0.08407 0.18279,-0.127244 0.27923,-0.145295 z m -30.75318,23.368443 c 3.01351,1.492759 6.64784,2.561886 9.63104,0.408487 1.05249,1.6996 2.81185,2.262363 3.15952,4.608439 1.38308,1.530475 -3.24453,0.500862 -2.51945,3.692786 0.39245,3.810553 0.84464,7.648068 1.24361,11.478626 -2.85033,-4.867863 -9.29331,-6.073494 -12.21062,-0.655219 -0.93651,1.118266 -1.48258,3.573791 -2.31754,4.22462 -3.99815,-4.116912 -11.10568,-4.486515 -13.94395,1.710694 -2.43149,-1.411636 -5.29352,-0.73981 -7.83328,-0.75116 -4.18157,1.2468 -6.91086,6.37598 -9.80931,9.2964 -2.043441,-3.47168 -5.524991,-4.86378 -8.754705,-4.21916 -2.317279,-0.56103 -4.73911,0.5759 -6.484402,2.51943 -0.298361,-2.15266 -1.817091,-3.33845 -2.83519,-4.89083 3.310033,-0.52627 6.029076,-3.187238 8.432527,-5.924348 2.067406,-1.327668 2.943331,1.089017 4.983047,1.705196 4.197323,1.116208 7.687143,-3.077602 11.265563,-5.143032 1.11153,-1.485907 2.0535,-2.697067 3.55902,-1.236409 4.30538,2.057052 10.08891,0.686915 12.2278,-4.992251 5.00811,3.432986 10.72136,-2.709675 11.33645,-9.178501 0.21339,-0.919063 0.43987,-1.862185 0.86987,-2.653768 z m 16.64383,9.140126 0.22338,0.131598 c 1.1673,0.671896 3.60333,0.772999 4.2356,1.129497 -1.76989,1.591955 -3.1419,1.126814 -4.29574,-1.052732 z M 72.969091,98.241925 c 0.225858,0.273206 0.450693,0.546487 0.676573,0.819704 0.86955,1.138361 2.940289,2.107911 3.333489,2.944371 -4.079542,1.82877 -8.13356,5.02118 -12.064564,6.4699 -0.436376,-2.3386 -5.11418,-1.21092 -2.375546,-2.55233 1.847763,-1.12064 2.800495,-4.05798 5.086149,-3.60779 2.04935,-0.59422 4.008886,-1.98057 5.343899,-4.073855 z m -15.64936,9.784375 c 0.245763,0.16021 -0.557607,-0.0159 0,0 z"
       style="font-style:normal;font-variant:normal;font-weight:normal;font-stretch:normal;font-size:14.6181px;line-height:1.25;font-family:'Soft Sugar plain';-inkscape-font-specification:'Soft Sugar plain, Normal';font-variant-ligatures:normal;font-variant-caps:normal;font-variant-numeric:normal;font-variant-east-asian:normal;letter-spacing:0px;word-spacing:0px;fill:#00ff00;fill-opacity:1;stroke:none;stroke-width:5.14823"
       id="path888" />
    <path
       d="m 60.01948,30.149128 c -0.267007,0.959587 -0.260065,2.216419 -1.12428,2.627778 -1.324491,1.128555 -2.405723,2.942954 -2.346448,5.060381 -0.304705,2.84327 0.21293,5.651422 0.543458,8.445568 0.02536,0.526266 0.30911,2.694251 0.01746,1.203411 -0.514966,-2.192602 -1.15339,-4.331037 -1.54303,-6.570321 -0.430891,-2.37414 -1.464125,-5.071893 -3.524507,-5.580812 -1.874916,-0.287535 -3.654216,0.883512 -5.328886,1.806071 -1.676195,1.053965 -3.34966,2.176526 -4.806038,3.685191 -1.119076,-0.94033 -2.609723,-0.661121 -3.665546,-1.77684 -1.183274,-0.859691 -2.499898,-0.0049 -3.702354,0.350669 -4.785894,1.868246 -9.353202,4.534539 -14.047966,6.713769 -2.125321,0.725898 -4.28982,1.285905 -6.348121,2.290956 -1.880212,-0.296554 -3.499,1.627077 -3.965162,3.842382 -0.5188779,2.201832 -0.691496,4.50292 -0.9698491,6.766875 0.9283611,0.450403 1.8242391,1.017837 2.7828181,1.358212 -0.09253,1.293385 0.182715,2.586823 0.239076,3.880313 1.668768,0.770991 3.455582,1.742038 5.251075,1.042983 1.722592,-0.435018 3.409732,-1.081127 5.058138,-1.849996 0.955797,6.872499 1.760013,13.781656 2.818987,20.629326 0.445327,2.36841 0.872827,4.852102 1.878862,6.932234 1.32462,1.795353 3.590427,2.310798 5.332281,1.237523 0.790373,1.971481 2.17706,4.160584 4.108869,3.868902 1.806636,-0.43555 3.311335,-1.992066 4.67547,-3.482321 0.398471,-0.701813 1.193537,-1.23662 0.915305,-2.233395 C 42.257042,87.550578 41.728169,84.74439 40.8202,82.154649 40.50469,78.7849 39.403798,75.63738 38.989296,72.288214 c -0.686775,-4.074002 -1.43021,-8.131187 -2.16807,-12.190441 1.461934,-1.637686 3.374333,-2.608786 4.582699,-4.59804 0.151085,-1.278638 0.302086,-2.557485 0.453112,-3.836175 0.858533,3.937768 1.568134,7.932352 2.270823,11.91309 0.464047,1.666121 0.984692,3.304657 1.49837,4.946002 -1.671574,1.18723 -3.102647,3.115743 -3.822561,5.358795 0.08424,1.577632 0.0062,3.207201 0.598838,4.656661 0.358446,1.253702 0.715899,2.507882 1.073313,3.762115 1.57225,-0.437672 3.225872,-0.496026 4.74093,-1.209192 0.911339,3.86148 1.937245,7.72036 3.622748,11.159291 0.885059,-0.192046 1.770096,-0.385157 2.65516,-0.577466 0.686615,2.167937 1.888685,4.573955 3.894245,4.787493 1.869479,0.07428 3.440174,-1.536152 4.916523,-2.799035 0.896048,-0.785465 1.452579,-2.194294 1.538907,-3.471657 2.566604,1.972972 6.469795,-0.02122 7.071779,-3.84063 1.06703,-0.24828 2.127337,-1.167813 2.733802,-2.110159 1.318798,2.848364 3.497346,4.910034 5.765027,6.413448 2.07348,1.390629 4.637209,0.864833 6.532382,-0.756561 1.377573,-1.141924 2.982916,-2.217693 3.688737,-4.219575 1.46743,-0.04244 3.219591,-0.07267 4.148659,-1.790102 0.790723,-1.347124 1.053938,-3.045873 1.263508,-4.673531 0.583092,2.470374 0.616586,5.453116 2.3269,7.197224 0.441684,0.764093 1.014521,1.002187 1.721613,0.701493 1.88704,-0.201064 3.15648,-2.253291 4.88178,-2.996217 0.65552,-0.468442 1.53531,-0.722449 2.05136,-1.327178 -0.10279,-1.090624 0.41477,-1.356304 1.1291,-1.581611 1.30337,-0.695659 2.01378,-2.552606 1.91527,-4.30435 1.76183,2.706504 4.42051,4.863931 7.27771,4.410292 1.9034,0.664413 3.67576,-1.305267 4.3147,-3.471819 0.65669,-2.107877 0.94127,-4.375864 1.10942,-6.623636 1.47889,1.679331 2.82711,3.59145 4.4673,5.011308 0.57063,0.440854 1.16558,0.513534 1.78277,0.185148 1.64868,-0.474276 2.59867,-2.485176 2.97192,-4.447482 0.74336,-2.371063 1.03464,-5.201603 2.60314,-6.970589 1.09583,-0.712954 0.0911,-0.51884 -0.58483,-0.467381 -0.2638,-0.340057 0.40363,-1.548506 0.49873,-2.22321 0.1936,-1.090942 0.3675,-1.192269 0.87303,-0.301861 0.66857,1.177947 0.13429,-1.632592 0.47542,-0.5199 0.27324,0.762768 0.50198,1.606545 1.23681,1.7579 2.05675,0.951949 4.14648,2.063952 6.35301,2.217481 1.70049,0.07161 2.78445,-2.008779 3.1048,-3.918351 0.16385,-0.771627 0.27424,-1.559117 0.427,-2.3343 0.48504,0.108756 1.3399,-0.288066 1.56143,0.31088 0.64123,2.460774 0.7308,5.457998 2.38056,7.251018 0.61633,0.665207 1.4269,0.814493 2.20686,0.845315 0.20138,1.882676 0.68953,3.855803 1.74259,5.222027 1.52762,0.917041 3.26126,1.071473 4.92298,1.229194 1.84921,0.04774 3.10977,-2.020556 3.84007,-3.950289 -0.30801,-2.843059 -0.84261,-5.673066 -1.03507,-8.545727 1.88549,2.556848 4.85759,4.057556 7.57901,3.057544 3.04258,-0.782239 6.09221,-2.046019 8.55353,-4.538677 3.35552,-2.257481 6.15371,-5.883626 7.91121,-10.169197 1.32281,-3.187837 1.34715,-7.154678 -0.005,-10.333919 -1.54328,-3.976496 -4.83098,-6.397904 -7.88073,-7.882592 1.84745,-1.809729 3.32466,-4.14212 4.90341,-6.308512 -1.12364,-3.765191 -2.00537,-7.768371 -3.91795,-11.036742 -1.67613,-2.844171 -4.64544,-4.214109 -7.36218,-3.440465 -1.82268,0.328915 -3.40031,1.577897 -4.89633,2.863218 -1.25111,1.121552 -2.76393,1.781243 -3.75495,3.323278 -2.32039,3.110594 -4.35763,6.64459 -5.53398,10.701245 -0.50401,1.611531 -0.98554,3.240304 -1.3293,4.921227 -1.28077,-3.38142 -2.60311,-6.772018 -4.27528,-9.867124 -1.48521,-2.459978 -2.88301,-5.037569 -4.75792,-7.056958 -1.3448,-1.517206 -3.16663,-3.136854 -5.03999,-2.38215 -0.82852,0.342179 -1.44786,1.35694 -2.22069,1.687023 -1.882,-0.527327 -3.95914,-1.63445 -5.82955,-0.516717 -1.44287,0.974547 -2.10983,3.185981 -2.22711,5.147702 0.20446,1.818751 0.55486,3.59405 0.63554,5.43784 0.27366,2.555628 0.46875,5.116774 0.45613,7.699564 0.0245,1.085744 0.0487,2.171487 0.0625,3.257599 -1.18782,0.268969 -2.07689,1.44145 -3.08203,2.21101 -0.37778,2.640934 -1.0652,5.236882 -1.14422,7.92991 0.0358,2.063104 1.52979,3.510708 3.01104,3.883763 0.16866,1.535138 0.23018,3.142531 0.57399,4.508384 0.30316,1.029456 -0.43822,-0.309817 -0.72998,-0.559052 -1.44833,-1.799438 -3.04448,-3.507418 -3.93171,-5.882089 -1.27483,-2.723481 -2.48766,-5.513914 -3.88338,-8.129542 -1.16315,-3.107678 -3.14141,-5.543093 -4.67129,-8.348538 -1.04491,-1.683576 -1.9668,-3.518769 -2.90838,-5.268818 -1.32464,-1.395667 -3.46239,-1.359698 -4.60625,0.361277 -1.27904,1.700817 -1.97643,3.933046 -3.05736,5.819648 -0.70848,1.334075 -0.87711,3.024174 -0.41897,4.530294 0.51598,2.411118 1.42306,4.663506 1.72754,7.151972 0.52926,2.60714 0.70835,5.315608 1.14309,7.955005 0.12304,0.855342 0.39877,2.218383 -0.18142,0.741494 -3.25253,-6.916637 -5.65579,-14.40877 -8.62921,-21.513369 -0.94123,-1.993976 -2.0727,-4.449709 -4.07783,-4.701224 -1.638144,0.271091 -3.461924,0.464197 -4.757682,1.916894 -1.076484,1.152427 -1.497143,2.996058 -1.428287,4.740111 -1.118451,0.880594 -2.171946,1.895779 -2.988051,3.225078 0.385502,2.745818 0.751174,5.497628 1.230206,8.22005 -2.116218,-4.306896 -4.427538,-8.727322 -7.835685,-11.527942 -1.858371,-1.418159 -4.634884,-1.631372 -6.199079,0.535977 -0.742806,1.466861 -1.352255,3.061151 -2.196764,4.456659 -1.169505,2.141565 -2.439885,4.264296 -3.093849,6.769473 -0.282052,-3.96286 -0.378064,-7.953307 -0.593789,-11.915902 -0.226813,-2.081565 -1.485239,-4.04875 -3.208825,-4.151457 -1.720129,-0.293903 -3.356952,-1.332431 -5.131089,-1.07646 -0.739722,0.07693 -1.467724,0.281701 -2.202406,0.412739 -0.128183,0.573905 -0.256406,1.147811 -0.384589,1.721665 z m 112.95443,-4.60308 c 0.39537,1.513971 0.56765,3.115635 0.90054,4.657086 -1.09283,-0.371357 -2.23438,-0.541333 -3.29145,-1.039004 -0.64274,-0.32202 -0.97792,-0.829295 -0.18337,-1.294658 0.8167,-0.875556 1.61242,-1.786813 2.47557,-2.588309 0.0328,0.08806 0.0658,0.17666 0.0986,0.264726 z m -15.74503,14.373015 c 0.61572,1.423678 1.31021,2.801838 2.10021,4.079149 -0.16618,1.50718 -0.54759,0.611996 -0.92796,-0.271091 -0.6116,-1.237098 -1.22318,-2.474196 -1.83479,-3.711293 0.22088,-0.03182 0.44173,-0.06472 0.66259,-0.09761 z m 3.3443,-0.490722 c -0.26608,0.977466 -0.53211,1.954878 -0.79817,2.932344 -0.20201,-0.911841 -0.34369,-1.848617 -0.63802,-2.722899 0.47842,-0.07321 0.95752,-0.139527 1.43619,-0.20955 z m -0.0133,6.087713 c 1.43318,1.50994 3.45262,1.805169 5.13103,2.121141 -1.43444,0.642979 -2.97952,1.422564 -3.92401,3.019826 -0.0951,-1.099697 -0.17037,-2.202469 -0.25795,-3.303331 -0.81411,0.753802 -0.70657,-0.831734 -0.95704,-1.463465 0.0129,-0.109292 -0.26306,-0.771947 0.008,-0.374011 z m 8.31937,2.534622 c 0.28122,0.03182 1.60073,-0.0589 0.91047,0.491783 -0.58918,0.888552 -1.03504,0.447749 -1.50577,-0.31141 -0.73239,-0.578416 0.33763,-0.09496 0.59563,-0.178252 z m -8.10905,14.367073 c -0.85444,-0.01592 -1.70891,-0.02653 -2.56334,-0.04244 0.43993,-1.339751 0.87988,-2.679449 1.31983,-4.019199 0.41447,1.353225 0.82899,2.706398 1.2435,4.059625 z M 56.283878,114.069 c 0.246182,0.9739 0.785109,1.77672 0.770363,2.84931 0.351629,2.02756 0.337373,4.21921 1.109898,6.07817 0.309026,2.58029 0.760077,5.16478 0.981279,7.74248 -0.117463,0.75985 -0.122073,1.54565 -0.04215,2.31186 -3.880251,-5.80214 -7.097765,-12.25522 -10.730936,-18.29853 -1.001983,-1.58405 -2.494782,-3.06826 -4.189706,-2.61064 -1.537112,0.79878 -2.153262,2.9968 -3.048241,4.63528 -0.691646,1.75063 -1.80799,3.47363 -1.715216,5.52909 0.286333,1.84485 1.319857,3.33176 1.516711,5.21757 2.776061,13.53582 5.416956,27.35864 8.734068,40.79721 -0.0039,1.14337 1.020062,0.57921 1.595338,0.76033 0.990918,0.19046 1.99371,-0.10192 2.734242,-0.99879 1.230251,-1.0944 2.228314,-2.60657 3.528116,-3.55252 1.661204,-0.7164 2.794814,-2.98736 2.475609,-5.21635 -0.09809,-0.82647 -0.280888,-1.63364 -0.493446,-2.42342 2.151864,2.43738 4.174402,5.17095 6.819608,6.74974 1.598289,1.07312 3.824664,1.791 5.312456,0.0759 1.646819,-1.99276 1.738304,-5.12754 1.88091,-7.83746 0.02576,-0.76248 0.03949,-1.52596 0.02909,-2.28915 0.888189,0.65344 1.990905,1.04485 2.735544,1.88312 0.155075,0.93454 0.206863,1.89243 0.319543,2.83652 2.080532,0.55821 4.208368,0.89083 6.259372,1.58735 1.443078,0.55771 2.871054,1.54925 4.40595,1.46462 1.2923,-0.2435 2.343403,-1.36516 2.999431,-2.76438 1.529727,0.1809 3.297277,0.2817 4.452297,-1.26585 0.448457,-0.41644 0.806483,-1.40956 1.248873,-1.531 1.221314,1.23609 2.524455,3.03342 4.222779,2.74015 2.04465,-0.42865 3.10955,-3.11579 3.4347,-5.49047 0.39004,-2.4447 0.78649,-4.88786 1.21443,-7.32232 2.75408,2.26831 5.36512,5.01349 8.52184,6.32008 2.34393,0.84627 5.19223,-1.03502 5.69867,-4.17051 0.54329,-1.70246 1.21248,-3.33918 1.68619,-5.07778 0.82321,3.0557 1.85883,6.20565 3.91754,8.246 1.90003,1.98219 4.18281,4.15289 6.77985,3.6969 2.14188,-0.2854 3.92924,-2.02463 5.59669,-3.62263 0.54725,-0.56446 1.00898,-1.27557 1.29109,-2.10242 1.46991,-0.0424 3.22865,-0.0743 4.15384,-1.80192 1.22004,-2.2741 1.34758,-5.16686 1.51542,-7.83337 0.0382,-1.40288 0.23238,-2.79276 0.41593,-4.17469 0.91474,4.22105 1.89806,8.41754 2.92979,12.59479 1.29991,-0.0424 2.7917,0.5616 3.87805,-0.65475 1.30511,-1.14336 2.37963,-2.69713 3.71471,-3.76216 1.49711,-0.6598 2.67556,-2.48679 2.61309,-4.56245 -0.0146,-1.07773 -0.27008,-2.12427 -0.53716,-3.13823 2.15339,2.43413 4.17431,5.16886 6.81907,6.74755 1.59814,1.07573 3.82646,1.79323 5.31508,0.0768 1.64718,-1.99251 1.74122,-5.12746 1.88302,-7.83789 0.0975,-5.85757 -0.13013,-11.75175 -1.02028,-17.5105 -0.86553,-6.66056 -1.82362,-13.30457 -2.63033,-19.975628 -0.18952,-2.279602 -0.0175,-5.058632 -1.61959,-6.603479 -0.75233,-0.781494 -1.75178,-1.139005 -2.71488,-1.063938 -0.45135,-1.744054 -1.31664,-3.237175 -2.44153,-4.370876 -1.80674,0.223344 -3.62813,1.180279 -5.07006,2.664542 -0.8666,-1.018474 -1.73317,-2.036949 -2.59977,-3.055476 0.33222,2.805606 0.52753,5.652325 0.94481,8.432306 0.33529,0.853753 0.67673,1.672645 0.69892,2.656845 0.34225,1.986284 0.33139,4.133108 1.09496,5.950164 0.30882,2.57849 0.75964,5.16111 0.98055,7.73701 -0.11751,0.75985 -0.12207,1.5457 -0.0422,2.31187 -3.88025,-5.80215 -7.09777,-12.255176 -10.73095,-18.298536 -1.00196,-1.584055 -2.49478,-3.068263 -4.1897,-2.610642 -1.5371,0.798793 -2.15327,2.996801 -3.04824,4.635281 -0.69165,1.750631 -1.80797,3.473627 -1.71522,5.529137 0.28633,1.84486 1.31986,3.33171 1.51672,5.21752 0.22137,1.06039 0.41643,1.97589 0.62489,3.02391 -2.17903,-4.55427 -4.52417,-9.23672 -8.01307,-12.332457 -1.85504,-1.628087 -4.69195,-1.997269 -6.42355,0.09285 -0.74919,1.27259 -1.21728,2.789423 -1.99028,4.056447 -0.61699,1.1311 -1.25171,2.24761 -1.8449,3.39919 -0.33267,-2.02649 -1.03585,-4.5531 -2.85095,-4.971254 -0.74653,-0.216979 -1.50648,0.123609 -2.11392,0.683504 -1.15094,-1.260221 -2.8933,-0.91248 -3.9506,0.35598 -2.33654,2.46703 -4.59402,5.07566 -6.69693,7.86529 -0.94687,1.48076 -1.68085,3.16386 -2.51067,4.75221 -1.41085,-2.72386 -2.51351,-5.87684 -4.578859,-7.91665 -1.032865,-0.97093 -2.435724,-0.75656 -3.480879,0.0636 -1.453836,-1.46459 -3.559128,-0.55943 -4.60901,1.16913 -0.633914,0.79158 -0.909766,2.05409 -1.658786,2.65202 -1.136053,0.53316 -1.86674,1.78289 -2.49284,3.03701 1.977801,6.5359 3.797082,13.19258 6.409408,19.37303 0.833599,1.65005 2.004654,2.99782 3.052167,4.43258 -0.709806,2.15451 -1.207517,4.39782 -1.547354,6.69334 -0.18018,0.38515 -0.861099,-0.49391 -1.291331,-0.47003 -1.165586,-0.48012 -2.482154,-0.48807 -3.594369,-1.02538 -0.274189,-2.64761 -0.588585,-5.30165 -1.355124,-7.80401 -1.392244,-5.05364 -3.180831,-9.91418 -4.502257,-15.00284 1.217796,-1.49424 2.704396,-3.41331 2.273219,-5.77265 -0.638234,-3.1715 -1.271586,-6.34458 -1.912931,-9.51497 -0.601916,-0.94982 -1.30683,-1.77444 -1.994726,-2.61977 -3.605678,1.69302 -7.126514,3.6679 -10.502553,6.01228 -1.947847,0.17773 -3.675113,1.9508 -4.399607,4.24509 -0.492119,-0.14482 -1.102612,0.15969 -1.162492,-0.71666 -0.432488,-1.54124 -1.313539,-2.7395 -2.276111,-3.7749 -1.821225,0.36924 -3.593702,1.20664 -5.030117,2.71526 -0.866596,-1.01853 -1.733188,-2.03701 -2.599772,-3.05553 0.285959,2.70221 0.571793,5.40431 0.857706,8.10642 z m 14.055775,7.689 c 0.407948,0.30611 1.341932,-0.35226 1.329928,0.46313 0.802264,5.85191 1.559846,11.77023 2.163402,17.60988 -0.387333,0.36869 -0.678794,0.86133 -0.950937,1.36368 -0.865483,-6.48337 -1.730956,-12.96679 -2.596439,-19.45016 z m 47.929647,-6.61085 c -0.0935,5.16415 0.24294,10.33149 0.65093,15.4665 0.1852,2.14476 0.42661,4.28064 0.70273,6.40926 -2.61705,-3.78116 -5.73466,-6.91733 -8.65425,-10.2987 2.15501,-4.36333 4.72219,-8.36996 7.23687,-12.39909 0.26314,-0.60913 0.0217,0.68733 0.0637,0.82203 z"
       style="font-style:normal;font-variant:normal;font-weight:normal;font-stretch:normal;font-size:14.6181px;line-height:1.25;font-family:'Soft Sugar plain';-inkscape-font-specification:'Soft Sugar plain, Normal';font-variant-ligatures:normal;font-variant-caps:normal;font-variant-numeric:normal;font-variant-east-asian:normal;letter-spacing:0px;word-spacing:0px;fill:#1f1c24;fill-opacity:1;stroke:none;stroke-width:5.14823"
       id="path880" />
    <path
       d="m 62.13537,30.918156 c -0.436915,2.097214 -0.785044,3.22752 -1.041958,3.391394 -1.449856,1.072799 -2.215586,2.052228 -2.296773,2.93558 -0.17307,1.985543 -0.174068,3.608851 -0.0059,4.870777 l 0.431822,3.234948 c 0.38567,4.082489 0.712278,8.176598 0.981841,12.284289 -0.29581,0.767754 -0.888941,1.250094 -1.779117,1.443676 -1.044976,0.227059 -1.665402,-0.397352 -1.86194,-1.869889 -0.02785,-0.210613 -0.05789,-0.878472 -0.08937,-2.00793 0.0075,-1.138104 -0.01413,-1.757793 -0.06658,-1.854347 -0.341114,-0.466847 -0.635002,-1.32203 -0.880864,-2.567192 -0.410941,-2.18321 -0.905484,-4.240583 -1.48184,-6.171376 -0.389826,-2.025435 -0.665253,-3.344125 -0.826898,-3.958245 -0.491904,-1.895036 -1.182747,-2.746294 -2.072922,-2.55271 -1.277176,0.277986 -2.991756,1.166009 -5.141846,2.66173 -2.477374,1.729146 -3.795465,3.179244 -3.95768,4.350823 0.411482,0.397352 0.665136,0.666533 0.763588,0.807278 0.527046,2.15801 0.947398,3.960527 1.260036,5.4076 1.0011,4.81433 1.695959,8.530821 2.085636,11.151489 0.309234,1.123144 0.705599,2.444912 1.187082,3.963391 l 0.83204,2.658442 c 0.049,0.368175 -0.280929,0.872902 -0.991828,1.514448 -0.436361,0.31141 -0.869003,0.649876 -1.29834,1.013753 -0.837618,0.885581 -1.45306,1.803046 -1.843906,2.75372 0.02785,0.210613 0.03492,0.562236 0.02037,1.052321 0.01746,0.429184 0.04115,0.748073 0.06908,0.958315 l 0.78534,2.749264 1.973377,-0.429183 c 0.193562,-0.04244 0.547556,-0.224936 1.06128,-0.553587 0.506754,-0.380908 0.856958,-0.592475 1.05047,-0.634492 0.309692,-0.06579 0.562819,0.03714 0.759736,0.32149 1.282288,5.727233 2.362492,9.495343 3.241454,11.30624 l 1.219597,-0.265256 c 0.154867,-0.03182 0.365096,-0.106107 0.628984,-0.216978 0.302626,-0.119901 0.53136,-0.196289 0.686143,-0.230241 0.154867,-0.03182 0.555949,0.880541 1.20269,2.74189 0.639732,1.808832 1.34521,2.627459 2.119269,2.459123 0.425737,-0.09233 1.141171,-0.54578 2.147646,-1.359744 0.756605,-0.597408 1.231679,-1.077844 1.421758,-1.44384 0.221785,-0.427061 0.26605,-1.140597 0.132713,-2.139601 -0.252707,-1.892969 -0.837676,-4.77014 -1.75116,-8.629655 -0.811586,-3.394631 -1.296776,-5.398157 -1.458426,-6.012329 l 2.290167,-2.528201 c 0.116135,-0.02654 0.21609,-0.02122 0.300547,0.01592 l 0.07012,0.06791 c 0.618298,2.841574 1.130858,5.192531 1.538345,7.051759 0.481321,2.113819 0.879381,4.351459 1.195244,6.717641 0.520014,2.105333 1.43868,3.015953 2.754577,2.729743 1.702934,-0.370296 2.484145,-1.677156 2.344133,-3.919253 0.534827,-0.170294 1.217569,-0.42494 2.04798,-0.76802 1.396909,-0.574491 1.822924,-2.752237 1.278822,-6.529789 C 73.015499,75.734474 72.568731,71.342484 71.828878,63.711727 71.64658,61.749368 71.319885,59.302018 70.8494,56.374342 70.357834,53.288839 69.999724,50.90706 69.775105,49.22444 69.494342,47.121178 69.316516,45.345453 69.243068,43.900502 68.966835,38.549719 68.823469,35.225912 68.809641,33.9303 c -0.14036,-1.051576 -0.426573,-1.690525 -0.855718,-1.921881 -0.8689,-0.243503 -1.544389,-0.394167 -2.0299,-0.451463 -1.449228,-0.713006 -2.712562,-0.927068 -3.789217,-0.638733 z m 73.91109,-13.963194 c -0.61925,0.13475 -1.05969,1.016828 -1.32056,2.642684 0.0806,0.902292 0.19215,1.579223 0.33275,2.035621 0.27341,3.241208 0.49624,5.655189 0.6681,7.241045 0.10411,4.360107 0.16813,7.674629 0.19203,9.942033 -0.9957,-2.67e-4 -1.64879,0.03182 -1.95849,0.0992 -0.15482,0.03182 -0.62306,0.40637 -1.40433,1.117467 -0.25025,1.407179 -0.41727,2.389102 -0.50188,2.948578 -0.31721,1.800393 -0.45129,2.886931 -0.40217,3.254946 0.0702,0.525736 0.50103,0.918208 1.29255,1.178954 1.45989,0.493905 2.25163,0.754865 2.37475,0.782238 0.14763,0.509289 0.1059,1.384102 -0.12674,2.625072 -0.18275,1.161923 -0.24913,1.905911 -0.21592,2.29955 0.0412,0.127326 0.18675,0.815025 0.44561,2.113979 0.41514,0.12627 0.86053,0.326796 1.3354,0.602289 -0.0361,2.71356 -0.0679,3.96355 -0.096,3.75299 0.056,0.420696 1.09719,1.060226 3.12339,1.918167 2.02621,0.857941 3.28997,1.234021 3.79311,1.124577 0.42575,-0.09231 0.78762,-1.119695 1.08381,-3.077917 0.33487,-1.966655 0.59846,-2.969531 0.79195,-3.011603 0.61925,-0.13475 1.46897,-0.184085 2.54904,-0.148544 1.28062,0.04774 2.04107,0.231304 2.28371,0.557302 l 1.14358,5.432905 c 0.3126,1.446755 0.69618,2.229311 1.15002,2.347298 0.44681,0.06525 0.91028,0.100259 1.38874,0.103983 0.64033,0.02122 1.04326,0.206368 1.20847,0.549238 0.0279,0.805527 0.0834,1.523996 0.16783,2.154933 0.17549,1.314605 0.4664,2.305811 0.87428,2.974679 0.13716,0.132623 0.73667,0.299739 1.79909,0.501333 1.06245,0.202124 1.7109,0.276396 1.94307,0.225468 0.50316,-0.109293 0.96539,-0.66956 1.38792,-1.681243 l -0.80018,-5.994185 -0.49305,-6.386444 c -0.29082,-3.670178 -0.45283,-5.770628 -0.48433,-6.304852 0.11931,0.89391 -0.18225,-0.177721 -0.90601,-3.212454 -0.55511,-2.368304 -1.01751,-4.485784 -1.38629,-6.353446 -1.58488,-5.607285 -3.62102,-11.008465 -6.10669,-16.203384 -0.77709,-1.346063 -1.38893,-2.349897 -1.83551,-3.010328 -0.49574,-1.028448 -1.31147,-2.229629 -2.45092,-3.605084 -1.47354,-1.789784 -2.57809,-2.604117 -3.31344,-2.44422 -0.11619,0.02653 -0.54531,0.389394 -1.28788,1.092161 -0.71087,0.641547 -1.10694,0.969348 -1.18436,0.986165 -0.0774,0.01592 -0.80225,-0.202124 -2.17773,-0.661015 -1.33676,-0.466849 -2.29627,-0.638045 -2.87682,-0.511944 z m -1.06984,36.16872 c -0.0166,-0.05304 -0.02,-0.03714 -0.002,0.100797 -0.002,-0.02122 0.004,-0.07693 0.002,-0.100797 z M 37.070875,41.483326 c -1.509405,0.328386 -4.35392,1.541929 -8.534225,3.641423 l -7.049974,3.563335 c -2.364492,0.784678 -3.835197,1.266593 -4.408719,1.445481 -0.270996,0.05728 -0.704331,0.232894 -1.302521,0.525205 -0.559465,0.284354 -0.994695,0.461014 -1.30432,0.52839 -0.116171,0.02653 -0.273739,0.03182 -0.474048,0.02653 -0.161932,-0.02122 -0.301337,-0.02122 -0.417471,0.0047 -0.735362,0.159688 -1.243558,1.136406 -1.522073,2.928523 -0.200919,1.179908 -0.340116,2.211698 -0.421319,3.095051 0.689435,0.390987 1.207403,0.549503 1.555728,0.473746 0.348429,-0.07374 0.683508,-0.257297 1.003769,-0.543454 0.379601,1.0537 0.564506,1.852968 0.557286,2.395626 -0.365968,0.241913 -0.563879,0.691414 -0.595757,1.347655 0.02119,0.158098 0.05682,0.582978 0.109182,1.274923 0.896997,0.454117 1.617092,0.621706 2.158927,0.503985 2.244767,-0.488069 4.703471,-1.45588 7.377762,-2.903271 l 0.528957,0.371887 2.663901,19.955525 c 0.56156,4.206577 1.20448,7.233139 1.928633,9.077725 0.105485,0.193635 0.390907,0.399474 0.858762,0.622447 0.460846,0.170824 0.807159,0.230771 1.039351,0.179843 1.432,-0.311409 2.059031,-1.284526 1.880142,-2.922901 0.08799,-0.235546 0.209522,-0.370826 0.364306,-0.404778 1.335406,4.633424 2.468521,6.849475 3.397389,6.647458 0.425729,-0.09232 1.048051,-0.498679 1.86802,-1.218324 0.858682,-0.727855 1.43427,-1.341869 1.726442,-1.838269 C 39.992625,88.869623 39.948483,88.09566 39.927498,87.937674 39.709869,86.307628 39.2852,84.614979 38.6525,82.858778 38.6562,82.587688 38.61842,82.162697 38.541187,81.584227 38.428846,80.742911 38.195045,79.577167 37.836711,78.085955 37.471365,76.542223 37.238476,75.399982 37.14021,74.663846 36.890911,73.094807 36.373695,70.123259 35.590585,65.74851 l -1.121652,-6.166336 c -0.10886,-0.517248 0.656836,-1.496782 2.296771,-2.93558 1.678632,-1.447445 2.530127,-2.227719 2.554829,-2.341037 0.363351,-2.946774 0.625814,-5.304309 0.788228,-7.071121 0.542444,-1.903525 0.851533,-3.025236 0.925496,-3.365983 -0.06297,-0.473215 -0.301794,-0.772052 -0.716875,-0.898103 -0.868898,-0.243503 -1.449935,-0.414857 -1.741933,-0.514063 -0.123154,-0.02653 -0.383551,-0.188863 -0.781033,-0.481173 -0.404458,-0.344832 -0.646093,-0.507698 -0.7235,-0.490722 z M 98.581142,29.649759 c -1.354597,0.294433 -2.179808,0.527327 -2.475441,0.699478 -0.848079,0.508759 -1.273835,1.35869 -1.274218,2.549157 l -0.01077,0.814439 c 0.03159,0.534542 0.03662,0.85741 0.01197,0.97078 -0.151377,0.358095 -0.641106,0.87057 -1.468112,1.537367 -0.788282,0.658523 -1.246205,1.108661 -1.372942,1.35259 0.575553,4.311724 1.180676,7.941583 1.812998,10.888197 0.01412,0.104512 0.107579,0.220162 0.283475,0.344302 0.175896,0.124141 0.274979,0.264726 0.296016,0.422286 0.02788,0.210614 0.03111,0.533747 0.0096,0.971153 0.01747,0.429182 0.04117,0.750513 0.06965,0.96102 0.891075,7.868373 1.490082,12.957771 1.798926,15.271381 l 0.831936,6.232066 c 0.09825,0.736136 0.715047,4.01013 1.849532,9.823517 0.136957,0.727754 0.436431,1.340015 0.900684,1.834186 0.517054,-0.0054 1.428744,-0.635338 2.734404,-1.893391 l 2.43984,-1.423254 c 0.053,-0.49868 0.10842,-0.970145 0.16833,-1.415986 0.0987,-0.454116 0.34161,-0.725048 0.72864,-0.809187 0.1162,-0.02653 0.2772,-0.0049 0.48461,0.05569 0.20058,0.01056 0.34003,0.01056 0.41748,-0.0047 0.85146,-0.185148 1.18887,-0.935979 1.01339,-2.250531 -0.18953,-1.419752 -0.68196,-3.477602 -1.47972,-6.171851 -0.75904,-2.702634 -1.23301,-4.764569 -1.42253,-6.184216 -0.16846,-1.262032 -0.21945,-2.087559 -0.15245,-2.480879 0.94233,1.68888 1.8455,3.386461 2.71043,5.092158 l 3.89182,7.674577 c 1.92695,3.09797 3.93649,4.419472 6.02644,3.96493 0.0774,-0.01592 0.19947,0.01056 0.36817,0.08117 0.16884,0.07109 0.31173,0.09602 0.42782,0.07109 0.92888,-0.202124 1.60582,-1.70416 2.02892,-4.501595 0.32084,-2.071749 0.43946,-3.558505 0.35883,-4.460849 0.11272,-0.349076 0.18134,-1.038741 0.20283,-2.071431 0.0217,-1.032746 0.12323,-1.758855 0.30632,-2.177429 0.41854,0.449873 1.78949,2.07244 4.1141,4.867487 1.94482,2.336634 2.97427,3.49129 3.09035,3.46609 0.61926,-0.134751 1.05181,-0.63242 1.29485,-1.49694 l 1.43684,-5.346061 c 0.73953,-2.21695 1.56105,-3.665245 2.46544,-4.348913 0.0457,-0.54982 0.0633,-0.87826 0.0494,-0.984151 0,0 -3.6e-4,-0.0027 -3.6e-4,-0.0027 -0.22518,-1.681824 -1.12047,-3.462483 -2.68462,-5.33964 -1.99054,-2.38072 -3.18171,-3.986417 -3.57195,-4.821333 l -3.10519,-6.711012 c -0.56251,-1.230412 -1.07091,-2.203687 -1.52452,-2.916693 -0.29519,-1.017945 -0.7989,-2.098435 -1.50921,-3.242586 -3.04515,-4.910936 -4.9614,-8.226308 -5.74891,-9.948824 -0.27432,-0.264724 -0.58503,-0.359686 -0.93338,-0.283822 -0.54184,0.117772 -1.35521,1.484739 -2.43966,4.101376 -0.9082,1.550152 -1.33142,2.561305 -1.26823,3.03452 0.0982,0.736189 0.3372,1.765327 0.7132,3.090382 0.41468,1.316569 0.68368,2.286129 0.80662,2.908683 0.35118,2.033873 0.58875,3.228051 0.71531,3.579303 -0.0316,0.06101 0.0798,1.038208 0.33246,2.931176 0.24565,1.840342 0.62907,4.570082 1.15211,8.189756 0.0133,2.486079 0.0361,4.590242 0.0674,6.314932 -0.64712,-0.670882 -1.13115,-1.16065 -1.4512,-1.469779 -2.40163,-3.968696 -4.67563,-8.776235 -6.8234,-14.423415 -3.24454,-8.492835 -4.95075,-12.911191 -5.11597,-13.254008 -1.13907,-2.56592 -1.997279,-3.784397 -2.577823,-3.658136 z M 172.91266,13.645636 c -1.27719,0.277987 -2.33851,0.832636 -3.18317,1.665644 -1.65397,1.333597 -2.88105,2.277853 -3.68337,2.831176 -1.13682,1.329406 -2.3656,3.163804 -3.68569,5.506963 -0.77446,1.358797 -1.54967,3.312456 -2.32451,5.86177 -1.05657,3.422164 -1.49715,5.791903 -1.32167,7.106453 0.13337,0.999005 0.34095,1.793339 0.61869,2.382205 0.88596,1.863471 1.54418,3.072346 1.97674,3.627578 0.77367,1.022187 1.75375,1.648455 2.93929,1.877584 2.53997,0.529979 4.54584,0.794703 6.01997,0.798788 0.49251,0.109292 1.055,0.584782 1.68447,1.421874 0.66819,0.828551 1.04451,1.55689 1.12874,2.187879 -0.27453,0.330508 -1.01789,1.03386 -2.22851,2.108728 -1.21763,1.022399 -1.92274,1.552856 -2.11624,1.594925 -0.0774,0.01592 -0.42886,-0.366582 -1.0513,-1.150783 -0.59078,-0.845474 -0.92294,-1.259273 -1.00035,-1.242456 -0.50313,0.109292 -1.12112,0.406371 -1.85306,0.889667 -0.91843,0.578522 -1.38624,1.113276 -1.40049,1.603308 -0.12029,2.082307 -0.0888,3.80742 0.0937,5.174495 0.16143,1.209405 0.86172,2.273714 2.09981,3.19484 1.23108,0.868497 2.31163,1.202031 3.2405,1.000012 2.05125,-0.446159 3.97005,-1.134391 5.7576,-2.064217 1.57297,-1.045476 2.50946,-1.791057 2.80865,-2.234935 2.02337,-1.251634 3.85902,-3.16492 5.50638,-5.741609 1.97822,-3.081576 2.79518,-5.910258 2.45124,-8.48679 -0.60364,-4.522017 -3.56999,-7.80036 -8.89939,-9.833754 -2.26204,-0.536186 -3.97768,-1.002505 -5.14559,-1.397789 -0.80916,-0.09442 -1.5962,-0.462606 -2.35945,-1.108183 -0.89338,-0.725527 -1.40608,-1.588932 -1.53946,-2.587989 -0.0983,-0.736137 0.0786,-1.343147 0.53263,-1.820608 1.11214,-1.215769 1.86021,-2.026602 2.24383,-2.434671 1.32328,-1.424101 2.19883,-2.182997 2.62456,-2.27557 0.96758,-0.210082 1.76439,0.832847 2.38988,3.131708 0.21418,1.306224 0.44708,2.607512 0.7,3.905301 0.41852,0.449871 0.78239,0.641865 1.09202,0.574543 0.50314,-0.109292 1.87699,-1.760288 4.11911,-4.953271 -1.1491,-4.132889 -2.09119,-6.850058 -2.82256,-8.15193 -1.36424,-2.462789 -3.1683,-3.449061 -5.41307,-2.960886 z M 79.471005,35.185105 c -0.580543,0.126255 -0.942331,0.393639 -1.086711,0.80367 -0.345145,0.994867 -1.177397,2.663429 -2.497483,5.006641 -1.193354,2.099229 -1.945853,3.779728 -2.255864,5.037515 -0.651704,2.576583 -0.950614,5.263301 -0.895238,8.064927 0.145473,7.056586 0.59831,13.426425 1.356408,19.105276 0.48431,3.628108 1.312688,6.856051 2.486852,9.684946 0.523803,1.238742 1.555797,2.554993 3.096317,3.951401 1.54051,1.396463 2.776791,1.993552 3.705668,1.791534 l 0.810958,-0.176128 c 0.425733,-0.09231 1.178882,-0.580487 2.255736,-1.463945 1.076867,-0.883511 1.725356,-1.537154 1.947143,-1.964109 0.07036,-0.0695 0.221117,-0.429182 0.453519,-1.074761 0.271078,-0.654174 0.425637,-0.985317 0.464349,-0.9937 0.348429,-0.07374 0.862319,-0.107164 1.541478,-0.08913 0.710607,-0.04775 1.24155,-0.108755 1.589895,-0.184617 0.619231,-0.134751 1.068693,-1.233915 1.350828,-3.297283 0.211556,-1.398692 0.322413,-2.801414 0.333423,-4.210608 0.173035,-1.985542 0.364643,-3.544075 0.572573,-4.671463 9.82e-4,-2.976165 -0.124978,-5.408449 -0.377687,-7.301416 -0.491357,-3.680736 -1.209383,-6.826504 -2.154917,-9.434494 -0.551896,-1.449142 -0.941466,-2.418968 -1.166448,-2.911122 -3.195586,-7.529484 -6.101247,-12.44408 -8.718036,-14.742729 -0.946119,-0.822238 -1.883802,-1.130995 -2.812672,-0.928976 z m 63.525105,-2.860884 c 2.22577,3.84461 3.74632,7.030962 4.56173,9.559056 -1.06244,-0.202124 -2.2542,-0.481701 -3.57692,-0.843403 -0.5648,-5.125688 -0.89355,-8.032036 -0.98481,-8.715653 z M 80.674179,51.804143 c 0.179265,0.44775 0.65941,1.209563 1.440102,2.284219 0.780701,1.074762 1.267714,1.887876 1.461009,2.441038 0.593994,1.764584 0.944948,2.904863 1.053843,3.422271 0.133379,0.999056 0.429717,2.775577 0.889746,5.326748 0.302047,1.665804 0.492039,2.787992 0.569235,3.366355 0.154416,1.156832 0.180515,2.096791 0.07826,2.822423 l -0.173538,0.03714 c -0.03159,0.06101 -0.12444,0.110349 -0.279227,0.144305 -0.657955,0.142712 -1.345335,-0.682342 -2.062464,-2.474301 -0.537847,-1.343995 -0.887904,-2.619926 -1.049344,-3.829277 -1.098612,-7.93145 -1.7414,-12.445619 -1.927501,-13.541387 z m 0.206656,51.998627 c -1.833274,0.88568 -3.54438,1.79976 -5.1314,2.74009 -0.513762,0.32839 -1.339464,0.85831 -2.476074,1.59248 -1.316092,0.88139 -2.010951,1.33004 -2.088355,1.34686 -0.116087,0.0265 -0.179181,0.0105 -0.186205,-0.0424 -0.0071,-0.0531 -0.06796,-0.0658 -0.184086,-0.0424 -0.81276,0.17666 -1.471573,0.75301 -1.978518,1.72899 -0.475257,0.91502 -0.640947,1.92321 -0.493546,3.02736 0.049,0.36817 0.408988,1.85981 1.076598,4.47417 0.960376,0.33263 1.632408,0.45729 2.019425,0.37241 1.161097,-0.25252 1.900084,-0.38674 2.216729,-0.4016 -0.04954,0.82213 -0.05868,1.33954 -0.03035,1.5501 l 1.105388,8.28058 c 0.393069,2.9446 0.890453,7.27256 1.493727,12.98504 -0.05631,0.17454 -0.103163,0.26686 -0.141899,0.27534 -0.918239,-0.0163 -1.501533,0.84066 -1.748367,2.57165 -0.521746,3.25176 -0.733504,5.24495 -0.63524,5.98102 0.04203,0.31566 0.729951,0.84343 2.063101,1.58146 1.392934,0.88744 2.187663,1.47164 2.384579,1.75356 0.242441,0.92112 0.386959,1.70262 0.432496,2.34204 l 4.442652,1.06118 c 2.377949,1.10612 3.683316,1.63514 3.915527,1.58463 0.503132,-0.10934 0.881716,-0.40955 1.135167,-0.89767 -0.08388,-1.22627 -0.121317,-1.94867 -0.110571,-2.16735 2.434468,0.33634 3.922731,0.44563 4.464599,0.32786 0.386997,-0.0843 0.777165,-0.4398 1.171414,-1.06681 -0.252793,-1.2978 -0.411565,-2.34433 -0.478194,-3.14148 l -0.452945,-6.06973 c -0.04906,-0.36816 -0.912518,-0.72228 -2.590594,-1.06068 -1.8012,-0.36554 -2.839702,-0.84389 -3.117432,-1.43287 -0.112486,-0.24616 -0.308892,-1.71741 -0.589471,-4.41591 -0.182334,-1.96237 -1.307042,-6.04767 -3.370201,-12.25432 -1.279251,-4.21279 -2.104625,-7.11733 -2.477019,-8.71369 l 1.532248,-1.95457 c 0.81655,-1.04335 1.189582,-1.8284 1.119387,-2.35424 l -1.780398,-8.86521 c -0.249716,-0.37879 -0.420439,-0.61259 -0.511875,-0.7007 z m -18.481531,5.56001 c -1.161096,0.25253 -2.400615,1.11986 -3.71689,2.59648 -0.197344,0.90844 -0.3025,1.30851 -0.316508,1.20351 0.02119,0.1581 0.117164,0.4345 0.289451,0.82977 0.210977,0.38675 0.324239,0.63354 0.338245,0.73848 l 0.789721,5.91583 c 0.02119,0.15809 0.09182,0.38674 0.211351,0.68547 0.151167,0.23767 0.23658,0.43395 0.257695,0.59194 l 1.179343,8.8346 c -0.200712,0.58472 -0.238119,1.34982 -0.111767,2.29642 l 0.315677,2.36469 c 0.333299,2.79525 0.382469,4.65199 0.14647,5.56908 -2.503892,-3.24306 -4.986954,-6.92401 -7.448355,-11.04204 -0.875544,-1.48691 -3.115287,-5.43592 -6.719352,-11.84858 -1.258787,-2.26941 -2.198456,-3.33744 -2.817711,-3.20274 -0.154866,0.0319 -0.74333,1.13656 -1.767828,3.3073 -0.9858,2.16232 -1.45885,3.40207 -1.41673,3.71761 0.04897,0.36765 0.215675,0.87099 0.500408,1.51248 0.305785,0.79901 0.493233,1.30013 0.560047,1.50236 0.537452,2.53441 0.989949,4.73645 1.358769,6.60411 3.25603,16.33601 5.738667,27.91706 7.446289,34.74218 0.03865,-0.0114 0.138656,-0.005 0.300548,0.0162 0.161891,0.0213 0.282509,0.0213 0.359942,0.005 0.193603,-0.0424 1.41759,-1.30983 3.673572,-3.80245 0.879762,-0.56977 1.373715,-0.89253 1.482783,-0.97046 0.454004,-0.47745 0.629561,-1.11067 0.524273,-1.89938 -0.175483,-1.31456 -0.756269,-3.27363 -1.740516,-5.87318 -0.984256,-2.59961 -1.568127,-4.5817 -1.750625,-5.94882 -0.02785,-0.21063 -0.02494,-0.34643 0.0067,-0.40744 2.184039,2.33859 3.392384,3.64583 3.628001,3.91926 4.24134,4.92128 6.522834,7.53563 6.842888,7.84487 2.265045,2.05047 3.901261,2.96704 4.907533,2.74821 1.199792,-0.26102 1.743428,-3.48972 1.63287,-9.68813 -0.07947,-4.47375 -0.279476,-7.9207 -0.602384,-10.33945 l -1.779669,-13.33167 -1.189446,-8.9103 c -0.05599,-0.42016 -0.108441,-1.11322 -0.157403,-2.07652 -0.05591,-1.01588 -0.120992,-1.78809 -0.191193,-2.31387 -0.133378,-0.99901 -0.607127,-1.57069 -1.423305,-1.71785 -0.67904,-0.0159 -1.354098,-0.004 -2.026059,0.0319 -0.548129,-2.31599 -1.073641,-3.71855 -1.576579,-4.2044 z M 159.91183,88.15605 c -1.16112,0.252522 -2.39851,1.119428 -3.71478,2.596052 -0.19735,0.908502 -0.30246,1.308451 -0.31651,1.203465 0.0212,0.158102 0.11715,0.434484 0.28941,0.82977 0.21107,0.38674 0.32213,0.634011 0.33613,0.738997 l 0.78972,5.915783 c 0.0212,0.158091 0.0919,0.386739 0.21131,0.685473 0.15141,0.23767 0.2387,0.43395 0.25982,0.59146 l 1.17935,8.83464 c -0.2008,0.58469 -0.23816,1.34989 -0.11177,2.29637 l 0.31568,2.3647 c 0.3333,2.79531 0.38242,4.6521 0.14647,5.56909 -2.50391,-3.24301 -4.98694,-6.92396 -7.44836,-11.04204 -0.87554,-1.48692 -3.11529,-5.43593 -6.71935,-11.848587 -1.25877,-2.269314 -2.19845,-3.337335 -2.81771,-3.202689 -0.15482,0.03187 -0.7433,1.136509 -1.76782,3.307306 -0.9858,2.16226 -1.45885,3.40206 -1.41674,3.71755 0.0489,0.36817 0.21576,0.871 0.5004,1.51249 0.30566,0.799 0.49316,1.30022 0.56006,1.50234 0.53744,2.53442 0.98998,4.73646 1.35876,6.60418 3.25604,16.33601 5.73867,27.91711 7.44631,34.74217 0.0383,-0.0114 0.13857,-0.005 0.3005,0.0163 0.16198,0.0213 0.28047,0.0213 0.35782,0.005 0.19356,-0.0424 1.41757,-1.30978 3.67357,-3.80243 0.87975,-0.57031 1.37584,-0.893 1.4849,-0.97088 0.454,-0.47746 0.62745,-1.11031 0.52216,-1.89903 -0.17548,-1.31449 -0.75627,-3.27356 -1.74052,-5.87311 -0.98427,-2.59956 -1.56601,-4.58219 -1.74851,-5.94931 -0.0279,-0.21061 -0.0271,-0.34589 0.005,-0.4069 2.18386,2.33854 3.39433,3.6453 3.63012,3.91872 4.24129,4.92133 6.52066,7.53616 6.84077,7.8453 2.26504,2.05053 3.90126,2.96709 4.90753,2.7483 1.1998,-0.26101 1.74555,-3.49021 1.63499,-9.6886 -0.0795,-4.47374 -0.28163,-7.92026 -0.60449,-10.33901 l -1.77967,-13.33163 -1.18945,-8.910289 c -0.056,-0.420694 -0.1083,-1.113275 -0.15736,-2.076584 -0.0559,-1.015875 -0.11894,-1.788509 -0.18912,-2.314347 -0.13338,-0.999004 -0.60712,-1.570582 -1.42331,-1.717847 -0.67904,-0.01593 -1.3562,-0.0032 -2.02815,0.03714 -0.5481,-2.315734 -1.07363,-3.718297 -1.57654,-4.204085 z m -32.74059,10.368567 c -0.58037,0.126268 -0.94431,0.394167 -1.08883,0.804088 -0.34515,0.994865 -1.17705,2.666135 -2.49712,5.009345 -1.19336,2.09923 -1.94412,3.77655 -2.25411,5.03433 -0.65171,2.57664 -0.95023,5.26607 -0.89488,8.06769 0.14552,7.05653 0.59571,13.42414 1.35394,19.10299 0.4843,3.62805 1.31482,6.85552 2.48895,9.68441 0.52385,1.2388 1.5562,2.5577 3.09669,3.95411 1.54053,1.39648 2.77467,1.9941 3.70354,1.79207 l 0.81306,-0.17665 c 0.42572,-0.0923 1.17637,-0.58299 2.25328,-1.46618 1.07679,-0.88346 1.72742,-1.53763 1.94924,-1.96459 0.0704,-0.0695 0.22145,-0.42653 0.45389,-1.07206 0.27103,-0.65416 0.42555,-0.98525 0.46435,-0.99369 0.34838,-0.0737 0.86208,-0.10722 1.54101,-0.0944 0.71057,-0.0478 1.23938,-0.10869 1.58776,-0.18408 0.61925,-0.13468 1.0712,-1.23163 1.35332,-3.295 0.21139,-1.39864 0.32186,-2.80407 0.33305,-4.21327 0.17308,-1.9856 0.3629,-3.54088 0.57082,-4.66832 9.7e-4,-2.97618 -0.12536,-5.41122 -0.37807,-7.30413 -0.49136,-3.68074 -1.20904,-6.8238 -2.15457,-9.43179 -0.5518,-1.44914 -0.93925,-2.41944 -1.16433,-2.9116 -3.1956,-7.52948 -6.10337,-12.4436 -8.72014,-14.742254 -0.94615,-0.822289 -1.88206,-1.134124 -2.81093,-0.932097 z m -13.21928,3.767523 c -0.34843,0.0738 -1.58745,1.37328 -3.72028,3.89326 -2.13986,2.46735 -3.38497,4.03713 -3.73351,4.70812 -1.77426,3.41595 -3.04352,5.99243 -3.80757,7.72768 l -3.221651,-6.68571 c -1.487174,-3.08539 -2.501515,-4.57019 -3.043347,-4.45241 -0.387045,0.0844 -0.826886,0.3687 -1.319619,0.85438 l -0.739112,0.73078 c -0.03865,0.0105 -0.235166,-0.27586 -0.59032,-0.84775 -0.355118,-0.57205 -0.688984,-0.82346 -0.998618,-0.75614 -0.503132,0.10929 -1.007891,0.65216 -1.514816,1.62819 -0.601964,1.15911 -0.989117,1.83832 -1.161614,2.03796 -0.13375,0.19099 -0.441516,0.42016 -0.923551,0.6876 -0.4433,0.25835 -0.725303,0.53793 -0.845099,0.83448 2.635708,9.00399 4.624662,14.95467 5.967652,17.85492 1.339794,1.98119 2.505979,3.54195 3.494222,4.67974 0.02788,0.2106 -0.137208,0.92091 -0.492901,2.13456 -0.524875,1.73742 -0.808685,2.74751 -0.850891,3.0272 -0.634453,3.60084 -1.029527,5.8518 -1.188143,6.75208 -0.317304,1.80022 -0.483016,2.80835 -0.493547,3.02736 0.06306,0.4732 0.845338,1.54903 2.343534,3.22522 1.498219,1.67615 2.402756,2.48089 2.712366,2.41357 0.774075,-0.1687 1.323545,-1.26277 1.651375,-3.28195 0.69099,-4.37073 1.33901,-8.16419 1.94517,-11.38014 l 5.40345,4.66774 c 3.05996,2.63516 5.03516,3.85793 5.92531,3.66436 1.23849,-0.26951 1.95784,-0.99429 2.15876,-2.17426 0.0424,-0.27958 0.41231,-1.38824 1.10958,-3.32544 0.60919,-1.70162 0.88268,-2.78907 0.8195,-3.26234 -0.14036,-1.05166 -1.92273,-3.50646 -5.34469,-7.3614 l -5.13152,-5.78093 c -0.11237,-0.84133 1.27935,-3.6888 4.1764,-8.53931 2.66825,-4.47613 4.50959,-7.39213 5.52325,-8.74885 0.43992,-0.58267 0.78067,-1.00745 1.02359,-1.27657 0.007,-0.54272 -0.0485,-1.26108 -0.16783,-2.15494 -0.41414,-3.10237 -0.91095,-4.59077 -1.49148,-4.46451 -0.1162,0.0266 -0.42039,0.28011 -0.91308,0.7659 -0.49273,0.48594 -0.797,0.74064 -0.9131,0.7659 -0.27095,0.0573 -0.52661,-0.20956 -0.76571,-0.80686 -0.23903,-0.59724 -0.53386,-0.85725 -0.88216,-0.78149 z m 14.42245,12.8514 c 0.17922,0.44776 0.65941,1.20962 1.44008,2.28433 0.78047,1.07471 1.26782,1.89058 1.46139,2.44368 0.5939,1.76465 0.94487,2.90487 1.05384,3.42222 0.13338,0.99917 0.42935,2.77294 0.88939,5.32411 0.30192,1.66585 0.49202,2.78799 0.56922,3.3664 0.15442,1.15678 0.18106,2.09939 0.0786,2.82507 l -0.17565,0.0372 c -0.0311,0.0611 -0.12473,0.10771 -0.2796,0.14167 -0.65793,0.14265 -1.34531,-0.68234 -2.06245,-2.47425 -0.53785,-1.34399 -0.88792,-2.61992 -1.04936,-3.82927 -1.09842,-7.93156 -1.73919,-12.4461 -1.92537,-13.54192 z"
       style="font-style:normal;font-variant:normal;font-weight:normal;font-stretch:normal;font-size:14.6181px;line-height:1.25;font-family:'Soft Sugar plain';-inkscape-font-specification:'Soft Sugar plain, Normal';font-variant-ligatures:normal;font-variant-caps:normal;font-variant-numeric:normal;font-variant-east-asian:normal;letter-spacing:0px;word-spacing:0px;fill:url(#linearGradient878);fill-opacity:1;stroke:#000000;stroke-width:5.14823"
       id="path14" />
  </g>
</svg>
